# xmcd
#
# Track frame offsets: 
#        150
#        24662
#        46205
#        73905
#        96470
#        123417
#        141365
#        162702
#        189900
#        218132
#
# Disc length: 3265 seconds
#
# Revision: 0
# Processed by: cddbd v1.5.2PL0 Copyright (c) Steve Scherf et al.
# Submitted via: ExactAudioCopy v1.0b3
#
DISCID=990cbf0a
DTITLE=Various Artist - Mua Bui 4
DYEAR=1900
DGENRE=
TTITLE0=Tai Linh, Dinh Van - Bon mua thuong nho
TTITLE1=Thuy Trang - Em di tren co non
TTITLE2=Lam Truong - Tieng sao phieu bong
TTITLE3=Tran Sang - Huong so ri
TTITLE4=Tai Linh, Tu Chau - Hong tran
TTITLE5=Che Thanh - Tinh da bay xa
TTITLE6=Tai Linh, Mong Na - Tan vo
TTITLE7=Yen Khoa, Che Thanh - Sao anh no danh quen
TTITLE8=Dinh Van - Nhan canh chim chieu
TTITLE9=Tai Linh, Kim Tu Long, Lam Truong, Canh Han - Nang Son Ca
EXTD=
EXTT0=
EXTT1=
EXTT2=
EXTT3=
EXTT4=
EXTT5=
EXTT6=
EXTT7=
EXTT8=
EXTT9=
PLAYORDER=
